<svg width="115" height="60" xmlns="http://www.w3.org/2000/svg" xmlns:xlink="http://www.w3.org/1999/xlink"><defs><path id="a" d="M.113.339h6.608v6.396H.113z"/><path id="c" d="M0 59.2h114.511V0H0z"/></defs><g fill="none" fill-rule="evenodd"><path d="M76.099 37.582h1.433c1.472 0 1.86-.232 1.86-1.007 0-.775-.543-1.085-1.9-1.085H76.1v2.092zm0-7.903h1.007c1.2 0 1.588-.272 1.588-.969 0-.736-.465-1.007-1.666-1.007H76.1v1.976zm11.854 8.175c0 2.247-.892 4.223-2.596 5.773-1.666 1.55-2.867 1.898-6.198 1.898H72.38c-1.86 0-2.713-.27-3.643-1.278-.503-.543-.89-1.318-1.045-2.015-.039-.31-.078-.62-.078-2.286V24.06c.04-2.557 1.86-4.378 4.378-4.378h3.641c2.75 0 3.68.078 4.725.31 3.565.852 5.967 3.952 5.967 7.749 0 1.472-.272 2.362-1.202 3.951 2.053 1.976 2.829 3.682 2.829 6.16zm11.041-.272h1.433c1.472 0 1.86-.232 1.86-1.007 0-.775-.543-1.085-1.9-1.085h-1.393v2.092zm0-7.903h1.007c1.2 0 1.588-.272 1.588-.969 0-.736-.465-1.007-1.666-1.007h-.929v1.976zm11.854 8.175c0 2.247-.892 4.223-2.596 5.773-1.666 1.55-2.867 1.898-6.198 1.898h-6.778c-1.86 0-2.713-.27-3.643-1.278-.503-.543-.89-1.318-1.045-2.015-.039-.31-.078-.62-.078-2.286V24.06c.04-2.557 1.86-4.378 4.378-4.378h3.641c2.75 0 3.68.078 4.725.31 3.565.852 5.967 3.952 5.967 7.749 0 1.472-.272 2.362-1.202 3.951 2.053 1.976 2.829 3.682 2.829 6.16z" fill="#F2BA18"/><path d="M2.883 54.25H1.595v1.39h1.288c.426 0 .742-.268.742-.686 0-.426-.316-.704-.742-.704zM0 52.905h3.096c1.39 0 2.15.937 2.15 2.059 0 1.111-.76 2.03-2.15 2.03H1.595v2.095H0v-6.184z" fill="#000"/><g transform="translate(6.734 52.465)"><mask id="b" fill="#fff"><use xlink:href="#a"/></mask><path d="M3.422 1.748c-1.029 0-1.686.778-1.686 1.79 0 1 .657 1.788 1.686 1.788 1.02 0 1.678-.788 1.678-1.789 0-1.01-.658-1.79-1.678-1.79m0-1.408c1.891 0 3.3 1.317 3.3 3.198 0 1.882-1.409 3.198-3.3 3.198-1.89 0-3.309-1.316-3.309-3.198C.113 1.656 1.531.34 3.423.34" fill="#000" mask="url(#b)"/></g><path d="M15.15 56.002c0-1.91 1.444-3.199 3.298-3.199 1.54 0 2.336.844 2.744 1.66l-1.371.65a1.5 1.5 0 00-1.373-.9c-.963 0-1.677.779-1.677 1.789 0 1.01.714 1.789 1.677 1.789a1.5 1.5 0 001.373-.9l1.371.65c-.398.797-1.204 1.659-2.744 1.659-1.854 0-3.299-1.298-3.299-3.198m9.943.76l-.417.52v1.807H23.08v-6.184h1.595v2.54l1.9-2.54h1.964l-2.4 2.892 2.53 3.292h-1.956zm5.252-3.856h4.532v1.344h-2.938v1.028h2.874v1.354h-2.874v1.113h2.938v1.343h-4.532zm8.043 1.39h-1.733v-1.39h5.05v1.39h-1.723v4.793h-1.594zm12.638.918l-.936 3.874h-1.686l-1.77-6.182h1.788l.936 4.124 1.057-4.124h1.223l1.057 4.124.927-4.124h1.797l-1.77 6.182h-1.686z" fill="#000"/><mask id="d" fill="#fff"><use xlink:href="#c"/></mask><path d="M57.084 59.088h1.427v-4.477h-1.427v4.477zm-.102-5.747c0-.454.362-.816.815-.816a.81.81 0 01.816.816.81.81 0 01-.816.816.812.812 0 01-.815-.816zm3.808-.435h4.532v1.344h-2.938v1.028h2.873v1.354h-2.873v2.456H60.79zm6.56 6.182h1.427v-4.477H67.35v4.477zm-.102-5.747c0-.454.362-.816.815-.816.454 0 .816.362.816.816a.811.811 0 01-.816.816.811.811 0 01-.815-.816zm10.239.909h-1.26v1.39h1.26c.417 0 .77-.268.77-.695 0-.427-.353-.695-.77-.695zm-.445 2.743h-.815v2.096h-1.594v-6.184h3.095c1.372 0 2.15.909 2.15 2.059 0 1.074-.658 1.65-1.233 1.854l1.261 2.27H78.08l-1.038-2.095zm4.918-4.087h4.533v1.344h-2.938v1.028h2.874v1.354h-2.874v1.113h2.938v1.343H81.96zm8.257 2.447v3.736h-1.594v-6.183h1.64l2.503 3.56v-3.56h1.603v6.183H92.83zm7.848-1.057h-1.733v-1.39h5.05v1.39H99.66v4.793h-1.594zm6.513 2.512h1.734l-.872-2.512-.862 2.512zm2.15 1.344h-2.567l-.315.937h-1.733l2.327-6.183h2.002l2.335 6.183h-1.733l-.316-.937zm3.706-5.246h1.594v4.792h2.484v1.39h-4.078zM23.229 24.705l-3.398 12.21-3.398-12.21h-4.887L8.263 36.839 4.887 24.705H0l5.779 20.82h5.037l3.208-11.89 3.3 11.89h5.013l5.779-20.82zm7.875 20.82h5.271v-14.66h-5.27zm5.26-18.759a2.623 2.623 0 11-5.247 0 2.623 2.623 0 015.247 0m21.008 18.759h5.27v-14.66h-5.27zm5.258-18.759a2.623 2.623 0 11-5.246 0 2.623 2.623 0 015.247 0m-8.79 2.624v-4.685h-12.66v20.82h5.89v-8.068h6.148v-4.684h-6.147V29.39zm18.965-19.033a2.206 2.206 0 01-1.61-.697l-.227-.252c-3.086-3.098-7.04-4.737-11.247-4.737-4.073 0-7.945 1.565-10.902 4.408a2.337 2.337 0 01-3.236-3.369C49.417 2.028 54.437 0 59.723 0A20.283 20.283 0 0174.16 5.982c.111.11.215.227.319.346.889.935.902 2.472-.032 3.36a2.385 2.385 0 01-1.64.67" fill="#000" mask="url(#d)"/><path d="M66.676 17.386c-.591 0-1.175-.23-1.623-.7l-.148-.164c-2.658-2.664-7.232-2.71-9.939-.105a2.336 2.336 0 01-3.238-3.366 11.702 11.702 0 018.148-3.291c3.144 0 6.1 1.224 8.322 3.447l.216.231c.839.956.802 2.456-.136 3.313a2.374 2.374 0 01-1.602.635" fill="#000" mask="url(#d)"/></g></svg>